<?xml version="1.0" standalone="no"?>
<!DOCTYPE svg PUBLIC "-//W3C//DTD SVG 20010904//EN"
 "http://www.w3.org/TR/2001/REC-SVG-20010904/DTD/svg10.dtd">
<svg version="1.0" xmlns="http://www.w3.org/2000/svg"
 width="300.000000pt" height="300.000000pt" viewBox="0 0 300.000000 300.000000"
 preserveAspectRatio="xMidYMid meet">
<metadata>
Created by potrace 1.14, written by Peter Selinger 2001-2017
</metadata>
<g transform="translate(0.000000,300.000000) scale(0.100000,-0.100000)"
fill="#000000" stroke="none">
<path d="M1435 2662 c-142 -14 -326 -69 -463 -139 -87 -45 -118 -67 -197 -145
-233 -233 -336 -523 -301 -848 28 -257 158 -485 376 -659 112 -89 124 -96 228
-133 74 -26 213 -68 226 -68 2 0 15 17 28 37 34 52 111 128 161 161 23 15 44
29 47 32 27 28 214 115 301 140 187 54 279 103 356 187 37 41 103 158 103 182
0 5 5 13 11 16 11 7 8 -43 -6 -100 -11 -41 -85 -145 -140 -193 -48 -42 -155
-101 -220 -121 -161 -50 -362 -160 -451 -248 -51 -50 -141 -154 -174 -200 -20
-29 -26 -50 -30 -118 -3 -46 -2 -81 3 -78 4 2 7 11 7 18 0 17 26 100 43 135
32 70 137 200 160 200 5 0 7 -19 4 -42 l-5 -43 26 34 c82 106 201 198 320 247
202 82 241 101 288 135 28 21 72 61 98 91 49 55 52 41 5 -27 -55 -81 -109
-128 -217 -186 -192 -103 -267 -152 -339 -225 -83 -83 -153 -207 -153 -270 0
-15 12 -38 29 -55 24 -23 38 -29 75 -29 36 0 45 3 44 18 -8 113 127 304 250
353 61 25 169 84 190 106 7 7 17 13 21 13 15 0 156 143 198 200 81 109 142
251 179 415 4 17 8 91 10 165 3 134 -13 255 -47 345 -91 240 -189 374 -366
501 -114 82 -230 135 -373 168 -78 19 -244 34 -305 28z"/>
</g>
</svg>
